<svg xmlns="http://www.w3.org/2000/svg" xmlns:ns1="http://sozi.baierouge.fr" xmlns:svg="http://www.w3.org/2000/svg" xmlns:xlink="http://www.w3.org/1999/xlink" id="svg2" width="512" height="512" version="1.1" viewBox="0 0 64 64"><defs id="defs4"><linearGradient id="linearGradient3675" x1="5" x2="55" y1="992.36" y2="1042.4" gradientUnits="userSpaceOnUse"><stop id="stop3665" offset="0" stop-color="#fea"/><stop id="stop3667" offset="1" stop-color="#fc0"/></linearGradient></defs><g id="layer1" transform="translate(0 -988.36)"><g id="g3671" transform="translate(0,4e-5)"><path id="path3660" fill="#a0892c" d="m29 3 7 20h3l-5-15-5-5zm-28 20 5 5 18 13-5-5-18-13zm57 0-18 13 6 20-17-12-16.906 12.031 4.906 4.969 17-12 17 12-6-20 18-13-5-5z" transform="translate(0 988.36)"/><path id="path2826" fill="url(#linearGradient3675)" d="m23 1011.4h-22l18 13-7 20 17-12 17 12-6-20 18-13h-22l-7-20-6 20z"/></g></g><metadata/></svg>