<svg xmlns="http://www.w3.org/2000/svg" width="254" height="200" fill="none" class="absolute"><path fill="#410CD9" d="M149.709 194.21a.307.307 0 0 1 .582 0l.57 1.734c.03.092.103.165.195.195l1.734.57c.28.093.28.489 0 .582l-1.734.57a.306.306 0 0 0-.195.195l-.57 1.734a.307.307 0 0 1-.582 0l-.57-1.734a.306.306 0 0 0-.195-.195l-1.734-.57a.307.307 0 0 1 0-.582l1.734-.57a.306.306 0 0 0 .195-.195l.57-1.734Z"/><path fill="#410CD9" d="M108.806 193.14a.204.204 0 0 1 .388 0l.38 1.156c.02.061.069.11.13.13l1.156.38a.204.204 0 0 1 0 .388l-1.156.38a.205.205 0 0 0-.13.13l-.38 1.156a.204.204 0 0 1-.388 0l-.38-1.156a.205.205 0 0 0-.13-.13l-1.156-.38a.204.204 0 0 1 0-.388l1.156-.38a.205.205 0 0 0 .13-.13l.38-1.156ZM62.16 182.245a.357.357 0 0 1 .68 0l.664 2.023c.036.108.12.192.228.228l2.023.665a.357.357 0 0 1 0 .678l-2.023.665a.358.358 0 0 0-.228.228l-.665 2.023a.357.357 0 0 1-.678 0l-.665-2.023a.358.358 0 0 0-.228-.228l-2.023-.665a.357.357 0 0 1 0-.678l2.023-.665a.358.358 0 0 0 .228-.228l.665-2.023Z" opacity=".5"/><path fill="#410CD9" d="M201.418 159.421c.185-.561.979-.561 1.164 0l1.14 3.467c.06.184.206.33.39.39l3.467 1.14c.561.185.561.979 0 1.164l-3.467 1.14a.611.611 0 0 0-.39.39l-1.14 3.467c-.185.561-.979.561-1.164 0l-1.14-3.467a.611.611 0 0 0-.39-.39l-3.467-1.14c-.561-.185-.561-.979 0-1.164l3.467-1.14a.611.611 0 0 0 .39-.39l1.14-3.467Z"/><path fill="#410CD9" d="M68.418 160.421c.185-.561.979-.561 1.164 0l1.14 3.467c.06.184.206.33.39.39l3.467 1.14c.561.185.561.979 0 1.164l-3.466 1.14a.611.611 0 0 0-.391.39l-1.14 3.467c-.185.561-.979.561-1.164 0l-1.14-3.467a.611.611 0 0 0-.39-.39l-3.467-1.14c-.561-.185-.561-.979 0-1.164l3.467-1.14a.611.611 0 0 0 .39-.39l1.14-3.467Z" opacity=".5"/><path fill="#410CD9" d="M184.612 149.28a.409.409 0 0 1 .776 0l.76 2.312c.04.123.137.22.26.26l2.312.76a.409.409 0 0 1 0 .776l-2.312.76a.406.406 0 0 0-.26.26l-.76 2.312a.409.409 0 0 1-.776 0l-.76-2.312a.406.406 0 0 0-.26-.26l-2.312-.76a.409.409 0 0 1 0-.776l2.312-.76a.406.406 0 0 0 .26-.26l.76-2.312Z" opacity=".25"/><path fill="#410CD9" d="M115.709 153.21a.307.307 0 0 1 .582 0l.57 1.734c.03.092.103.165.195.195l1.734.57c.28.093.28.489 0 .582l-1.734.57a.306.306 0 0 0-.195.195l-.57 1.734a.307.307 0 0 1-.582 0l-.57-1.734a.306.306 0 0 0-.195-.195l-1.734-.57a.307.307 0 0 1 0-.582l1.734-.57a.306.306 0 0 0 .195-.195l.57-1.734ZM194.161 120.245a.357.357 0 0 1 .678 0l.665 2.023a.36.36 0 0 0 .228.228l2.023.665a.357.357 0 0 1 0 .678l-2.023.665a.36.36 0 0 0-.228.228l-.665 2.023a.357.357 0 0 1-.678 0l-.665-2.023a.36.36 0 0 0-.228-.228l-2.023-.665a.357.357 0 0 1 0-.678l2.023-.665a.36.36 0 0 0 .228-.228l.665-2.023Z"/><path fill="#410CD9" d="M168.806 123.14a.204.204 0 0 1 .388 0l.38 1.156c.02.061.069.11.13.13l1.156.38a.204.204 0 0 1 0 .388l-1.156.38a.205.205 0 0 0-.13.13l-.38 1.156a.204.204 0 0 1-.388 0l-.38-1.156a.205.205 0 0 0-.13-.13l-1.156-.38a.204.204 0 0 1 0-.388l1.156-.38a.205.205 0 0 0 .13-.13l.38-1.156Z" opacity=".25"/><path fill="#410CD9" d="M51.16 116.245a.357.357 0 0 1 .68 0l.664 2.023c.036.108.12.192.228.228l2.023.665a.357.357 0 0 1 0 .678l-2.023.665a.358.358 0 0 0-.228.228l-.665 2.023a.357.357 0 0 1-.678 0l-.665-2.023a.358.358 0 0 0-.228-.228l-2.023-.665a.357.357 0 0 1 0-.678l2.023-.665a.358.358 0 0 0 .228-.228l.665-2.023ZM3.16 132.245a.357.357 0 0 1 .68 0l.664 2.023c.036.108.12.192.228.228l2.023.665a.357.357 0 0 1 0 .678l-2.023.665a.358.358 0 0 0-.228.228l-.665 2.023a.357.357 0 0 1-.678 0l-.665-2.023a.358.358 0 0 0-.228-.228l-2.023-.665a.357.357 0 0 1 0-.678l2.023-.665a.358.358 0 0 0 .228-.228l.665-2.023Z"/><path fill="#410CD9" d="M181.258 79.175a.255.255 0 0 1 .484 0l.475 1.445a.257.257 0 0 0 .163.163l1.445.475a.255.255 0 0 1 0 .484l-1.445.475a.257.257 0 0 0-.163.163l-.475 1.445a.255.255 0 0 1-.484 0l-.475-1.445a.257.257 0 0 0-.163-.163l-1.445-.475a.255.255 0 0 1 0-.484l1.445-.475a.257.257 0 0 0 .163-.163l.475-1.445ZM21.258 79.175a.255.255 0 0 1 .484 0l.475 1.445a.255.255 0 0 0 .163.163l1.445.475a.255.255 0 0 1 0 .484l-1.445.475a.255.255 0 0 0-.163.163l-.475 1.445a.255.255 0 0 1-.484 0l-.475-1.445a.255.255 0 0 0-.163-.163l-1.445-.475a.255.255 0 0 1 0-.484l1.445-.475a.255.255 0 0 0 .163-.163l.475-1.445ZM79.258 105.175a.255.255 0 0 1 .484 0l.475 1.445a.257.257 0 0 0 .163.163l1.445.475a.255.255 0 0 1 0 .484l-1.445.475a.257.257 0 0 0-.163.163l-.475 1.445a.255.255 0 0 1-.484 0l-.475-1.445a.257.257 0 0 0-.163-.163l-1.445-.475a.255.255 0 0 1 0-.484l1.445-.475a.257.257 0 0 0 .163-.163l.475-1.445ZM231.258 105.175a.255.255 0 0 1 .484 0l.475 1.445a.26.26 0 0 0 .163.163l1.445.475a.255.255 0 0 1 0 .484l-1.445.475a.26.26 0 0 0-.163.163l-.475 1.445a.255.255 0 0 1-.484 0l-.475-1.445a.26.26 0 0 0-.163-.163l-1.445-.475a.255.255 0 0 1 0-.484l1.445-.475a.26.26 0 0 0 .163-.163l.475-1.445ZM59.127 36.631c.278-.841 1.468-.841 1.745 0l1.71 5.2c.092.278.31.495.587.586l5.2 1.71c.841.278.841 1.468 0 1.745l-5.2 1.71a.917.917 0 0 0-.586.587l-1.71 5.2c-.278.841-1.468.841-1.745 0l-1.71-5.2a.917.917 0 0 0-.587-.586l-5.2-1.71c-.841-.278-.841-1.468 0-1.745l5.2-1.71a.917.917 0 0 0 .586-.587l1.71-5.2Z" opacity=".5"/><path fill="#410CD9" d="M121.612 10.28a.409.409 0 0 1 .776 0l.76 2.312c.04.123.137.22.26.26l2.312.76a.409.409 0 0 1 0 .776l-2.312.76a.407.407 0 0 0-.26.26l-.76 2.312a.409.409 0 0 1-.776 0l-.76-2.312a.407.407 0 0 0-.26-.26l-2.312-.76a.409.409 0 0 1 0-.776l2.312-.76a.407.407 0 0 0 .26-.26l.76-2.312ZM249.612 42.28a.409.409 0 0 1 .776 0l.76 2.312c.04.123.137.22.26.26l2.312.76a.409.409 0 0 1 0 .776l-2.312.76a.407.407 0 0 0-.26.26l-.76 2.312a.409.409 0 0 1-.776 0l-.76-2.312a.407.407 0 0 0-.26-.26l-2.312-.76a.409.409 0 0 1 0-.776l2.312-.76a.407.407 0 0 0 .26-.26l.76-2.312ZM198.161 55.245a.357.357 0 0 1 .678 0l.665 2.023c.036.108.12.192.228.228l2.023.665a.357.357 0 0 1 0 .678l-2.023.665a.358.358 0 0 0-.228.228l-.665 2.023a.357.357 0 0 1-.678 0l-.665-2.023a.358.358 0 0 0-.228-.228l-2.023-.665a.357.357 0 0 1 0-.678l2.023-.665a.358.358 0 0 0 .228-.228l.665-2.023Z"/><path fill="#410CD9" d="M177.258 32.175a.255.255 0 0 1 .484 0l.475 1.445a.257.257 0 0 0 .163.163l1.445.475a.255.255 0 0 1 0 .484l-1.445.475a.257.257 0 0 0-.163.163l-.475 1.445a.255.255 0 0 1-.484 0l-.475-1.445a.257.257 0 0 0-.163-.163l-1.445-.475a.255.255 0 0 1 0-.484l1.445-.475a.257.257 0 0 0 .163-.163l.475-1.445ZM147.806.14a.204.204 0 0 1 .388 0l.38 1.156c.02.061.069.11.13.13l1.156.38a.204.204 0 0 1 0 .388l-1.156.38a.205.205 0 0 0-.13.13l-.38 1.156a.204.204 0 0 1-.388 0l-.38-1.156a.205.205 0 0 0-.13-.13l-1.156-.38a.204.204 0 0 1 0-.388l1.156-.38a.205.205 0 0 0 .13-.13l.38-1.156Z" opacity=".5"/><path fill="#410CD9" d="M72.258 24.175a.255.255 0 0 1 .484 0l.475 1.445a.255.255 0 0 0 .163.163l1.445.475a.255.255 0 0 1 0 .484l-1.445.475a.255.255 0 0 0-.163.163l-.475 1.445a.255.255 0 0 1-.484 0l-.475-1.445a.255.255 0 0 0-.163-.163l-1.445-.475a.255.255 0 0 1 0-.484l1.445-.475a.255.255 0 0 0 .163-.163l.475-1.445Z" opacity=".25"/></svg>